<svg xmlns="http://www.w3.org/2000/svg" width="512" height="512" viewBox="0 0 512 512">
  <defs>
    <linearGradient id="background" x1="72" y1="40" x2="440" y2="472" gradientUnits="userSpaceOnUse">
      <stop stop-color="#705CFF"/>
      <stop offset="1" stop-color="#3B25C9"/>
    </linearGradient>
  </defs>
  <rect x="20" y="20" width="472" height="472" rx="112" fill="url(#background)"/>
  <path d="M169 145a42 42 0 1 0 0 84h118a42 42 0 1 0 0-84 42 42 0 0 0-42 42v138a42 42 0 1 0 84 0 42 42 0 0 0-42-42H169a42 42 0 1 0 0 84 42 42 0 0 0 42-42V187a42 42 0 0 0-42-42Z" transform="matrix(1.15 0 0 1.15 -1.6 -38.4)" fill="none" stroke="#FFFFFF" stroke-width="24" stroke-linecap="round" stroke-linejoin="round"/>
</svg>
