<svg xmlns="http://www.w3.org/2000/svg" width="1280" height="800" viewBox="0 0 1280 800">
  <defs>
    <linearGradient id="page" x1="60" y1="36" x2="1220" y2="764" gradientUnits="userSpaceOnUse">
      <stop stop-color="#7767FF"/>
      <stop offset="1" stop-color="#3218C4"/>
    </linearGradient>
    <linearGradient id="key" x1="760" y1="320" x2="1120" y2="558" gradientUnits="userSpaceOnUse">
      <stop stop-color="#725FFF"/>
      <stop offset="1" stop-color="#4328D7"/>
    </linearGradient>
    <filter id="shadow" x="0" y="0" width="1280" height="800" filterUnits="userSpaceOnUse">
      <feDropShadow dx="0" dy="20" stdDeviation="24" flood-color="#140A55" flood-opacity="0.24"/>
    </filter>
  </defs>

  <rect width="1280" height="800" fill="url(#page)"/>
  <circle cx="1120" cy="90" r="190" fill="#FFFFFF" opacity="0.05"/>
  <circle cx="110" cy="760" r="240" fill="#FFFFFF" opacity="0.04"/>

  <g filter="url(#shadow)">
    <rect x="70" y="62" width="1140" height="676" rx="26" fill="#FFFFFF"/>
    <path d="M96 62h1088a26 26 0 0 1 26 26v108H70V88a26 26 0 0 1 26-26Z" fill="#F2F1F7"/>
  </g>

  <circle cx="112" cy="102" r="9" fill="#FF6B66"/>
  <circle cx="142" cy="102" r="9" fill="#F3BF4F"/>
  <circle cx="172" cy="102" r="9" fill="#58C769"/>

  <rect x="226" y="82" width="214" height="74" rx="15" fill="#E4E2EC"/>
  <text x="260" y="127" font-family="-apple-system, BlinkMacSystemFont, 'Segoe UI', sans-serif" font-size="22" font-weight="600" fill="#686474">Inbox</text>

  <rect x="450" y="76" width="300" height="86" rx="17" fill="#FFFFFF"/>
  <circle cx="485" cy="119" r="12" fill="#6550EC"/>
  <path d="M480 119l4 4 8-9" fill="none" stroke="#FFFFFF" stroke-width="3" stroke-linecap="round" stroke-linejoin="round"/>
  <text x="510" y="127" font-family="-apple-system, BlinkMacSystemFont, 'Segoe UI', sans-serif" font-size="22" font-weight="650" fill="#29263A">Project notes</text>
  <rect x="658" y="96" width="70" height="30" rx="15" fill="#EDE9FF"/>
  <text x="671" y="117" font-family="-apple-system, BlinkMacSystemFont, 'Segoe UI', sans-serif" font-size="14" font-weight="700" fill="#5A42DA">RESTORED</text>

  <rect x="94" y="176" width="1092" height="536" rx="0" fill="#FBFAFE"/>
  <text x="150" y="324" font-family="-apple-system, BlinkMacSystemFont, 'Segoe UI', sans-serif" font-size="58" font-weight="750" letter-spacing="-1.5" fill="#29263A">Bring back your tab.</text>
  <text x="152" y="378" font-family="-apple-system, BlinkMacSystemFont, 'Segoe UI', sans-serif" font-size="25" fill="#6B667A">Command + Z restores tabs, not your edits.</text>

  <rect x="150" y="478" width="430" height="58" rx="29" fill="#F0EDFF"/>
  <circle cx="183" cy="507" r="10" fill="#6550EC"/>
  <text x="207" y="515" font-family="-apple-system, BlinkMacSystemFont, 'Segoe UI', sans-serif" font-size="18" font-weight="600" fill="#534D68">No tracking · No text access · No network</text>

  <rect x="754" y="294" width="190" height="190" rx="42" fill="url(#key)"/>
  <rect x="754.5" y="294.5" width="189" height="189" rx="41.5" fill="none" stroke="#FFFFFF" stroke-opacity="0.3"/>
  <path d="M169 145a42 42 0 1 0 0 84h118a42 42 0 1 0 0-84 42 42 0 0 0-42 42v138a42 42 0 1 0 84 0 42 42 0 0 0-42-42H169a42 42 0 1 0 0 84 42 42 0 0 0 42-42V187a42 42 0 0 0-42-42Z" transform="matrix(.45 0 0 .45 748.2 273.8)" fill="none" stroke="#FFFFFF" stroke-width="24" stroke-linecap="round" stroke-linejoin="round"/>

  <text x="969" y="412" font-family="-apple-system, BlinkMacSystemFont, 'Segoe UI', sans-serif" font-size="54" font-weight="500" fill="#8A8499">+</text>

  <rect x="1035" y="294" width="150" height="190" rx="42" fill="#29263A"/>
  <rect x="1035.5" y="294.5" width="149" height="189" rx="41.5" fill="none" stroke="#FFFFFF" stroke-opacity="0.18"/>
  <text x="1081" y="429" font-family="-apple-system, BlinkMacSystemFont, 'Segoe UI', sans-serif" font-size="106" font-weight="650" fill="#FFFFFF">Z</text>

  <text x="754" y="548" font-family="-apple-system, BlinkMacSystemFont, 'Segoe UI', sans-serif" font-size="20" font-weight="600" fill="#817B91">ONE SHORTCUT. YOUR TAB IS BACK.</text>
</svg>
